<svg xmlns="http://www.w3.org/2000/svg" width="53" height="349" viewBox="0 0 53 349"><svg xmlns:xlink="http://www.w3.org/1999/xlink" viewBox="0 0 36 44" width="36" height="44"><defs><path id="a" d="M1472.9 2388a19.1 19.1 0 0 1-7.13-1.36 1.25 1.25 0 0 1-.7-1.63c.26-.64 1-.95 1.65-.69 1.96.78 4.04 1.18 6.18 1.18 9.58 0 16.53-6.88 16.53-16.36 0-5.7-3.05-10.88-8.16-13.85-.6-.35-.8-1.12-.45-1.72.36-.6 1.13-.8 1.74-.44a18.45 18.45 0 0 1 9.4 16.01c0 10.08-6.81 17.6-16.53 18.72v2.6h3.81c.73 0 1.32.56 1.32 1.25 0 .7-.59 1.25-1.32 1.25h-10c-.72 0-1.31-.56-1.31-1.25s.59-1.25 1.32-1.25h3.67V2388h-.02zm-.01-30.06c-6.29 0-11.4 5.1-11.4 11.32 0 6.21 5.11 11.24 11.4 11.24 6.28 0 11.4-5.03 11.4-11.24 0-6.22-5.12-11.32-11.4-11.32 0 0 6.29 0 0 0zm0-2.5c7.7 0 13.93 6.2 13.93 13.82 0 7.6-6.24 13.74-13.93 13.74-7.7 0-13.93-6.13-13.93-13.74s6.24-13.82 13.93-13.82z"/></defs><use xlink:href="#a" transform="translate(-1457 -2351)" fill="#ff8207"/></svg><svg xmlns:xlink="http://www.w3.org/1999/xlink" viewBox="0 0 43 44" width="43" height="44" y="44"><defs><path id="b" d="M795.01 2608.1c-.2 0-.41-.05-.6-.16l-18.54-10.13a1.26 1.26 0 0 1 .04-2.23l18.73-9.45c.36-.18.78-.18 1.13 0l18.54 9.46a1.26 1.26 0 0 1 .03 2.22l-18.74 10.14c-.18.1-.39.15-.59.15zm-15.85-11.35l15.85 8.67 16.04-8.68-15.85-8.08zm35.62 9.15c0 .47-.25.9-.66 1.12l-18.73 10.14a1.24 1.24 0 0 1-1.2 0l-18.52-10.2a1.26 1.26 0 0 1 .03-2.22l3.92-1.98 2.67 1.46-3.33 1.68 15.85 8.67 16.04-8.68-3.13-1.59 2.68-1.45 3.7 1.9c.42.2.68.63.69 1.1zm0 8.78c0 .47-.25.9-.66 1.12l-18.73 10.14a1.24 1.24 0 0 1-1.2 0l-18.53-10.14a1.26 1.26 0 0 1 .03-2.22l3.68-1.7 2.67 1.45-3.1 1.41 15.86 8.67 16.04-8.68-2.93-1.44 2.68-1.44 3.5 1.73c.42.21.68.63.69 1.1z"/></defs><use xlink:href="#b" transform="translate(-773 -2584)" fill="#ff8207"/></svg><svg xmlns:xlink="http://www.w3.org/1999/xlink" viewBox="0 0 44 43" width="44" height="43" y="88"><defs><path id="c" d="M795.23 2378.2c-.07 0-.13 0-.2-.02a1.25 1.25 0 0 1-.97-.8l-2.1-5.76c-.05.09-.12.18-.2.26l-20.66 20.73a1.24 1.24 0 0 1-1.76 0 1.25 1.25 0 0 1 0-1.77l20.66-20.73.1-.1-5.34-1.91a1.25 1.25 0 0 1-.35-2.17l5.7-4.47.22-7.26a1.24 1.24 0 1 1 1.94-1l6 4.06 6.96-2.04c.44-.13.9 0 1.23.31.32.32.44.8.32 1.23l-2 6.99 4 6a1.26 1.26 0 0 1-.98 1.96l-7.16.25-4.43 5.75c-.24.3-.6.49-.98.49zm-7.5-11.7l5.24 1.9c.35.12.62.4.75.74l1.9 5.25 3.4-4.42c.23-.3.58-.47.95-.49l5.56-.2-3.13-4.6c-.21-.32-.27-.7-.17-1.06l1.53-5.37-5.34 1.57c-.36.1-.74.04-1.05-.16l-4.62-3.12-.16 5.58c-.01.37-.19.72-.48.95z"/></defs><use xlink:href="#c" transform="translate(-767 -2351)" fill="#ff8207"/></svg><svg xmlns:xlink="http://www.w3.org/1999/xlink" viewBox="0 0 53 42" width="53" height="42" y="131"><defs><path id="d" d="M461.87 2356.1h-43.75v26.15h43.75zm0-3.08a3.11 3.11 0 0 1 3.13 3.08v26.15c0 1.69-1.4 3.07-3.13 3.07h-20.3v4.62h7.8c.87 0 1.57.7 1.57 1.54 0 .85-.7 1.54-1.57 1.54h-18.75c-.86 0-1.56-.69-1.56-1.54s.7-1.54 1.56-1.54h7.82v-4.62h-20.32a3.11 3.11 0 0 1-3.12-3.07v-26.15c0-1.7 1.4-3.08 3.12-3.08z"/></defs><use xlink:href="#d" transform="translate(-413 -2352)" fill="#ff8207"/></svg><svg xmlns:xlink="http://www.w3.org/1999/xlink" viewBox="0 0 44 44" width="44" height="44" y="173"><defs><path id="e" d="M1481 2592.3h-17.53v31.28h28.7v-15.94l2.5-2.39v18.33a2.5 2.5 0 0 1-2.5 2.5h-28.7a2.5 2.5 0 0 1-2.5-2.5v-31.28a2.5 2.5 0 0 1 2.5-2.5h20l.06.06zm14.3-3.78c-1.18 0-2.14.92-2.24 1.03l-16.86 16.87c-.36 1.27-1.16 3.95-1.83 6.17 2.08-.68 4.83-1.57 5.98-1.92l.77-.76c10.03-9.91 15.47-15.3 16.17-16.02.8-.82 1.19-1.59 1.17-2.28 0-.68-.41-1.4-1.2-2.16-.65-.62-1.3-.93-1.96-.93 0 0 1.18 0 0 0zm0-2.5c1.33 0 2.57.54 3.7 1.63 1.27 1.23 1.94 2.54 1.96 3.91.03 1.39-.6 2.76-1.88 4.07-1.23 1.28-16.44 16.3-17.23 17.07-.12.12-.27.21-.43.26-1.25.37-8.84 2.83-8.92 2.86a1.04 1.04 0 0 1-1.06-.26 1.06 1.06 0 0 1-.26-1.06c.02-.08 2.27-7.45 2.71-9.11.05-.18.15-.34.28-.47l17.13-17.15a5.98 5.98 0 0 1 4-1.75z"/></defs><use xlink:href="#e" transform="translate(-1459 -2584)" fill="#ff8207"/></svg><svg xmlns:xlink="http://www.w3.org/1999/xlink" viewBox="0 0 44 44" width="44" height="44" y="217"><defs><path id="f" d="M1113.3 2392.8l-1.22.02-.02-1.27c0-6.26 1.26-7.57 3.93-8.9.64-.32 1.3-.61 2.02-1.16l1.52 1.93c-.91.7-1.75 1.12-2.42 1.45-1.61.8-2.41 1.26-2.54 5.46 4.37-.16 4.86-1.24 5.64-2.87.31-.63.66-1.35 1.21-2.1l1.85 1.67c-.46.76-.6 1.14-.88 1.7-1.24 2.57-2.47 4.07-9.09 4.07zm26.22-22.4a5 5 0 1 1 .01-10.01 5 5 0 0 1 0 10.01zm0-7.5a2.5 2.5 0 1 0 0 5 2.5 2.5 0 0 0 0-5zm-10.86 30.1c-.13 0-.26-.01-.38-.05a1.25 1.25 0 0 1-.83-.9l-1.52-6.42-2.82-3.12c-1.35-1.5-2.2-2.44-2.7-3.06l-7.45-1.7a1.24 1.24 0 0 1-.65-2.04l4.57-4.96c.24-.26.58-.41.93-.41h6.94c.44-.78.95-1.8 1.48-2.86 1.38-2.74 2.94-6.06 4.51-7.89 1.89-2.2 3.9-3.65 6.36-4.56 6.72-2.5 13.7-2 13.7-2 .62.05 1.11.55 1.15 1.17.02.33.47 8.1-1.63 13.73a13.44 13.44 0 0 1-4.24 6.15c-1.74 1.56-5.96 3.52-8.79 5.1-1.03.58-2.13 1.17-2.76 1.56v6.43c0 .36-.16.7-.43.94l-4.62 4.6c-.23.2-.52.3-.82.3zm-6.69-15.48l6.03 6.68c.14.16.24.35.29.55l1.12 4.73 2.63-2.88v-6.52c0-.37.17-.73.46-.96.5-.42 1.65-1.04 3.58-2.12 2.57-1.44 6.8-3.4 8.35-4.78 2.09-1.86 2.79-3.1 3.55-5.16 1.47-3.95 1.56-9.28 1.52-11.58-2.17-.01-6.92.17-11.53 1.88a12.55 12.55 0 0 0-5.33 3.85c-1.38 1.6-2.93 4.9-4.18 7.39-.74 1.47-1.38 2.74-1.93 3.63-.22.37-.62.6-1.06.6h-7.1l-2.8 2.96 5.72 1.3c.27.07.5.22.68.43z"/></defs><use xlink:href="#f" transform="translate(-1110 -2351)" fill="#ff8207"/></svg><svg xmlns:xlink="http://www.w3.org/1999/xlink" viewBox="0 0 43 44" width="43" height="44" y="261"><defs><path id="g" d="M464 2604.9v2.5c0 1.39-1.3 2.23-2.5 2.5l-3.25.82a15.1 15.1 0 0 1-.9 2.15l1.74 2.9c.65 1.04.98 2.56 0 3.54l-1.76 1.77c-.98.98-2.63.8-3.62.11l-2.82-1.8c-.72.38-1.48.7-2.26.95l-.72 3.26c-.22 1.2-1.26 2.49-2.64 2.49h-2.5c-1.38 0-2.23-1.32-2.5-2.5l-.8-3.21c-.85-.27-1.67-.62-2.45-1.03l-2.9 1.84c-.99.7-2.63.87-3.6-.11l-1.78-1.77c-.97-.98-.65-2.5 0-3.54l1.83-3.05c-.32-.65-.6-1.3-.82-2l-3.25-.81c-1.2-.28-2.5-1.12-2.5-2.5v-2.51c0-1.38 1.29-2.43 2.48-2.64l3.2-.71c.24-.75.55-1.47.89-2.16l-1.83-3.05c-.65-1.03-.97-2.56 0-3.54l1.77-1.77c.98-.98 2.62-.8 3.62-.1l2.88 1.83c.78-.4 1.6-.75 2.44-1.02l.8-3.22c.27-1.19 1.12-2.5 2.5-2.5h2.5c1.38 0 2.42 1.3 2.64 2.48l.72 3.26c.79.25 1.55.58 2.28.96l2.82-1.8c1-.69 2.64-.87 3.62.11l1.76 1.77c.98.98.65 2.5 0 3.54l-1.73 2.9c.37.74.7 1.5.95 2.3l3.2.72c1.2.21 2.49 1.26 2.49 2.64zm-2.48.1c-.05-.08-.26-.24-.54-.3l-4.62-1.02-.44-1.39c-.19-.62-.45-1.24-.79-1.91l-.63-1.24 2.47-4.12c.14-.22.21-.44.23-.57l-1.64-1.6a.94.94 0 0 0-.51.18l-4.03 2.58-1.28-.67c-.62-.33-1.26-.6-1.9-.8l-1.36-.44-1.05-4.75c-.04-.18-.2-.4-.18-.43h-2.32c-.08.11-.19.32-.25.61l-1.14 4.57-1.33.42c-.69.22-1.37.5-2.03.86l-1.29.67-4.19-2.67a2.01 2.01 0 0 0-.42-.18l-1.65 1.65c.03.13.1.35.26.6l2.53 4.23-.61 1.23a12.4 12.4 0 0 0-.74 1.79l-.43 1.38-4.72 1.04c-.17.04-.37.18-.41.18h-.01v2.33c.1.08.32.18.6.25l4.6 1.15.42 1.32c.18.53.4 1.08.69 1.65l.6 1.23-2.55 4.27c-.14.22-.2.43-.23.56l1.64 1.6c.17 0 .35-.07.52-.18l4.11-2.63 1.29.68c.66.35 1.35.64 2.03.86l1.34.42 1.15 4.61c.05.25.16.46.23.56h2.25c.1-.07.23-.27.28-.52l1.03-4.66 1.36-.44c.63-.2 1.26-.47 1.88-.8l1.28-.66 4.11 2.63c.09.06.27.13.43.18l1.64-1.65c-.02-.13-.1-.35-.25-.6l-2.45-4.1.63-1.23c.3-.6.55-1.2.75-1.79l.43-1.31 4.63-1.16c.25-.06.45-.17.56-.24zm-17.5 8.58a7.54 7.54 0 0 1 0-15.05 7.54 7.54 0 0 1 0 15.05zm-.02-12.54a5 5 0 1 0 .02 10.02 5 5 0 0 0-.02-10.02z"/></defs><use xlink:href="#g" transform="translate(-422 -2584)" fill="#ff8207"/></svg><svg xmlns:xlink="http://www.w3.org/1999/xlink" viewBox="0 0 44 44" width="44" height="44" y="305"><defs><path id="h" d="M1162 2595.6c-.01 2.78.03 9.1-2.88 12.05l-.53.54a9.51 9.51 0 0 1-6.81 2.9c-1.6 0-3.5-.48-4.87-1.23l-14.63 14.77a4.92 4.92 0 0 1-7.03 0l-1.76-1.8a5.11 5.11 0 0 1 0-7.14l14.4-14.73c-1.5-3.64-1-8.44 1.87-11.36l.54-.54c2.68-2.72 8.68-3.02 12.16-3.02h.34a1.19 1.19 0 0 1 .88 1.96l-5.62 6.51 5.68 5.84 6.3-5.66c.35-.31.85-.38 1.27-.2.42.2.69.64.69 1.1zm-2.44 2.7l-5.1 4.6c-.47.42-1.18.4-1.62-.06l-7.24-7.43a1.22 1.22 0 0 1-.05-1.64l4.58-5.3c-2.33.14-6.54.63-8.16 2.28l-.54.54c-1.89 1.94-2.24 5.3-1.64 7.75.21.86.57 1.7 1.1 2.46l-15.64 15.98a2.56 2.56 0 0 0 0 3.57l1.75 1.79a2.45 2.45 0 0 0 3.52 0l16-16.17c.66.6 1.38 1.06 2.16 1.38.87.37 2.15.54 3.1.54 1.91 0 3.74-.68 5.13-2.1l.47-.53c1.55-1.58 2.03-5.18 2.18-7.65z"/></defs><use xlink:href="#h" transform="translate(-1120 -2584)" fill="#ff8207"/></svg></svg>