<svg xmlns="http://www.w3.org/2000/svg" xmlns:xlink="http://www.w3.org/1999/xlink" width="36" height="44" viewBox="0 0 36 44"><defs><path id="a" d="M1472.94 2388.04a19.1 19.1 0 0 1-7.13-1.36 1.25 1.25 0 0 1-.7-1.63c.26-.64 1-.95 1.65-.69 1.96.78 4.04 1.18 6.18 1.18 9.58 0 16.53-6.88 16.53-16.36 0-5.7-3.05-10.88-8.16-13.85-.6-.35-.8-1.12-.45-1.72.36-.6 1.13-.8 1.74-.44a18.45 18.45 0 0 1 9.4 16.01c0 10.08-6.81 17.6-16.53 18.72v2.6h3.81c.73 0 1.32.56 1.32 1.25 0 .7-.59 1.25-1.32 1.25h-10c-.72 0-1.31-.56-1.31-1.25s.59-1.25 1.32-1.25h3.67v-2.46h-.02zm-.01-30.06c-6.29 0-11.4 5.1-11.4 11.32 0 6.21 5.11 11.24 11.4 11.24 6.28 0 11.4-5.03 11.4-11.24 0-6.22-5.12-11.32-11.4-11.32 0 0 6.29 0 0 0zm0-2.5c7.7 0 13.93 6.2 13.93 13.82 0 7.6-6.24 13.74-13.93 13.74-7.7 0-13.93-6.13-13.93-13.74s6.24-13.82 13.93-13.82z"/></defs><use fill="#ff8207" xlink:href="#a" transform="translate(-1457 -2351)"/></svg>