<svg xmlns="http://www.w3.org/2000/svg" xmlns:xlink="http://www.w3.org/1999/xlink" width="43" height="44" viewBox="0 0 43 44"><defs><path id="a" d="M795.01 2608.08c-.2 0-.41-.05-.6-.16l-18.54-10.13a1.26 1.26 0 0 1 .04-2.23l18.73-9.45c.36-.18.78-.18 1.13 0l18.54 9.46a1.26 1.26 0 0 1 .03 2.22l-18.74 10.14c-.18.1-.39.15-.59.15zm-15.85-11.35l15.85 8.67 16.04-8.68-15.85-8.08zm35.62 9.15c0 .47-.25.9-.66 1.12l-18.73 10.14a1.24 1.24 0 0 1-1.2 0L775.67 2607a1.26 1.26 0 0 1 .03-2.22l3.92-1.98 2.67 1.46-3.33 1.68 15.85 8.67 16.04-8.68-3.13-1.59 2.68-1.45 3.7 1.9c.42.2.68.63.69 1.1zm0 8.78c0 .47-.25.9-.66 1.12l-18.73 10.14a1.24 1.24 0 0 1-1.2 0l-18.53-10.14a1.26 1.26 0 0 1 .03-2.22l3.68-1.7 2.67 1.45-3.1 1.41 15.86 8.67 16.04-8.68-2.93-1.44 2.68-1.44 3.5 1.73c.42.21.68.63.69 1.1z"/></defs><use fill="#ff8207" xlink:href="#a" transform="translate(-773 -2584)"/></svg>