<svg xmlns="http://www.w3.org/2000/svg" xmlns:xlink="http://www.w3.org/1999/xlink" width="44" height="43" viewBox="0 0 44 43"><defs><path id="a" d="M795.23 2378.22c-.07 0-.13 0-.2-.02a1.25 1.25 0 0 1-.97-.8l-2.1-5.76c-.05.09-.12.18-.2.26l-20.66 20.73a1.24 1.24 0 0 1-1.76 0 1.25 1.25 0 0 1 0-1.77l20.66-20.73.1-.1-5.34-1.91a1.25 1.25 0 0 1-.35-2.17l5.7-4.47.22-7.26a1.24 1.24 0 1 1 1.94-1l6 4.06 6.96-2.04c.44-.13.9 0 1.23.31.32.32.44.8.32 1.23l-2 6.99 4 6a1.26 1.26 0 0 1-.98 1.96l-7.16.25-4.43 5.75c-.24.3-.6.49-.98.49zm-7.5-11.7l5.24 1.9c.35.12.62.4.75.74l1.9 5.25 3.4-4.42c.23-.3.58-.47.95-.49l5.56-.2-3.13-4.6c-.21-.32-.27-.7-.17-1.06l1.53-5.37-5.34 1.57c-.36.1-.74.04-1.05-.16l-4.62-3.12-.16 5.58c-.01.37-.19.72-.48.95z"/></defs><use fill="#ff8207" xlink:href="#a" transform="translate(-767 -2351)"/></svg>