<svg xmlns="http://www.w3.org/2000/svg" xmlns:xlink="http://www.w3.org/1999/xlink" width="44" height="44" viewBox="0 0 44 44"><defs><path id="a" d="M1481.03 2592.28h-17.53v31.28h28.7v-15.94l2.5-2.39v18.33a2.5 2.5 0 0 1-2.5 2.5h-28.7a2.5 2.5 0 0 1-2.5-2.5v-31.28a2.5 2.5 0 0 1 2.5-2.5h20l.06.06zm14.3-3.78c-1.18 0-2.14.92-2.24 1.03l-16.86 16.87c-.36 1.27-1.16 3.95-1.83 6.17 2.08-.68 4.83-1.57 5.98-1.92l.77-.76c10.03-9.91 15.47-15.3 16.17-16.02.8-.82 1.19-1.59 1.17-2.28 0-.68-.41-1.4-1.2-2.16-.65-.62-1.3-.93-1.96-.93 0 0 1.18 0 0 0zm0-2.5c1.33 0 2.57.54 3.7 1.63 1.27 1.23 1.94 2.54 1.96 3.91.03 1.39-.6 2.76-1.88 4.07-1.23 1.28-16.44 16.3-17.23 17.07-.12.12-.27.21-.43.26-1.25.37-8.84 2.83-8.92 2.86a1.04 1.04 0 0 1-1.06-.26 1.06 1.06 0 0 1-.26-1.06c.02-.08 2.27-7.45 2.71-9.11.05-.18.15-.34.28-.47l17.13-17.15a5.98 5.98 0 0 1 4-1.75z"/></defs><use fill="#ff8207" xlink:href="#a" transform="translate(-1459 -2584)"/></svg>