<svg xmlns="http://www.w3.org/2000/svg" xmlns:xlink="http://www.w3.org/1999/xlink" width="44" height="44" viewBox="0 0 44 44"><defs><path id="a" d="M1113.3 2392.8l-1.22.02-.02-1.27c0-6.26 1.26-7.57 3.93-8.9.64-.32 1.3-.61 2.02-1.16l1.52 1.93c-.91.7-1.75 1.12-2.42 1.45-1.61.8-2.41 1.26-2.54 5.46 4.37-.16 4.86-1.24 5.64-2.87.31-.63.66-1.35 1.21-2.1l1.85 1.67c-.46.76-.6 1.14-.88 1.7-1.24 2.57-2.47 4.07-9.09 4.07zm26.22-22.4a5 5 0 1 1 .01-10.01 5 5 0 0 1 0 10.01zm0-7.5a2.5 2.5 0 1 0 0 5 2.5 2.5 0 0 0 0-5zm-10.86 30.1c-.13 0-.26-.01-.38-.05a1.25 1.25 0 0 1-.83-.9l-1.52-6.42-2.82-3.12c-1.35-1.5-2.2-2.44-2.7-3.06l-7.45-1.7a1.24 1.24 0 0 1-.65-2.04l4.57-4.96c.24-.26.58-.41.93-.41h6.94c.44-.78.95-1.8 1.48-2.86 1.38-2.74 2.94-6.06 4.51-7.89 1.89-2.2 3.9-3.65 6.36-4.56 6.72-2.5 13.7-2 13.7-2 .62.05 1.11.55 1.15 1.17.02.33.47 8.1-1.63 13.73a13.44 13.44 0 0 1-4.24 6.15c-1.74 1.56-5.96 3.52-8.79 5.1-1.03.58-2.13 1.17-2.76 1.56v6.43c0 .36-.16.7-.43.94l-4.62 4.6c-.23.2-.52.3-.82.3zm-6.69-15.48l6.03 6.68c.14.16.24.35.29.55l1.12 4.73 2.63-2.88v-6.52c0-.37.17-.73.46-.96.5-.42 1.65-1.04 3.58-2.12 2.57-1.44 6.8-3.4 8.35-4.78 2.09-1.86 2.79-3.1 3.55-5.16 1.47-3.95 1.56-9.28 1.52-11.58-2.17-.01-6.92.17-11.53 1.88a12.55 12.55 0 0 0-5.33 3.85c-1.38 1.6-2.93 4.9-4.18 7.39-.74 1.47-1.38 2.74-1.93 3.63-.22.37-.62.6-1.06.6h-7.1l-2.8 2.96 5.72 1.3c.27.07.5.22.68.43z"/></defs><use fill="#ff8207" xlink:href="#a" transform="translate(-1110 -2351)"/></svg>