<svg xmlns="http://www.w3.org/2000/svg" xmlns:xlink="http://www.w3.org/1999/xlink" width="43" height="44" viewBox="0 0 43 44"><defs><path id="a" d="M464 2604.88v2.5c0 1.39-1.3 2.23-2.5 2.5l-3.25.82a15.1 15.1 0 0 1-.9 2.15l1.74 2.9c.65 1.04.98 2.56 0 3.54l-1.76 1.77c-.98.98-2.63.8-3.62.11l-2.82-1.8c-.72.38-1.48.7-2.26.95l-.72 3.26c-.22 1.2-1.26 2.49-2.64 2.49h-2.5c-1.38 0-2.23-1.32-2.5-2.5l-.8-3.21c-.85-.27-1.67-.62-2.45-1.03l-2.9 1.84c-.99.7-2.63.87-3.6-.11l-1.78-1.77c-.97-.98-.65-2.5 0-3.54l1.83-3.05c-.32-.65-.6-1.3-.82-2l-3.25-.81c-1.2-.28-2.5-1.12-2.5-2.5v-2.51c0-1.38 1.29-2.43 2.48-2.64l3.2-.71c.24-.75.55-1.47.89-2.16l-1.83-3.05c-.65-1.03-.97-2.56 0-3.54l1.77-1.77c.98-.98 2.62-.8 3.62-.1l2.88 1.83c.78-.4 1.6-.75 2.44-1.02l.8-3.22c.27-1.19 1.12-2.5 2.5-2.5h2.5c1.38 0 2.42 1.3 2.64 2.48l.72 3.26c.79.25 1.55.58 2.28.96l2.82-1.8c1-.69 2.64-.87 3.62.11l1.76 1.77c.98.98.65 2.5 0 3.54l-1.73 2.9c.37.74.7 1.5.95 2.3l3.2.72c1.2.21 2.49 1.26 2.49 2.64zm-2.48.1c-.05-.08-.26-.24-.54-.3l-4.62-1.02-.44-1.39c-.19-.62-.45-1.24-.79-1.91l-.63-1.24 2.47-4.12c.14-.22.21-.44.23-.57l-1.64-1.6a.94.94 0 0 0-.51.18l-4.03 2.58-1.28-.67c-.62-.33-1.26-.6-1.9-.8l-1.36-.44-1.05-4.75c-.04-.18-.2-.4-.18-.43h-2.32c-.08.11-.19.32-.25.61l-1.14 4.57-1.33.42c-.69.22-1.37.5-2.03.86l-1.29.67-4.19-2.67a2.01 2.01 0 0 0-.42-.18l-1.65 1.65c.03.13.1.35.26.6l2.53 4.23-.61 1.23a12.4 12.4 0 0 0-.74 1.79l-.43 1.38-4.72 1.04c-.17.04-.37.18-.41.18h-.01v2.33c.1.08.32.18.6.25l4.6 1.15.42 1.32c.18.53.4 1.08.69 1.65l.6 1.23-2.55 4.27c-.14.22-.2.43-.23.56l1.64 1.6c.17 0 .35-.07.52-.18l4.11-2.63 1.29.68c.66.35 1.35.64 2.03.86l1.34.42 1.15 4.61c.05.25.16.46.23.56h2.25c.1-.07.23-.27.28-.52l1.03-4.66 1.36-.44c.63-.2 1.26-.47 1.88-.8l1.28-.66 4.11 2.63c.09.06.27.13.43.18l1.64-1.65c-.02-.13-.1-.35-.25-.6l-2.45-4.1.63-1.23c.3-.6.55-1.2.75-1.79l.43-1.31 4.63-1.16c.25-.06.45-.17.56-.24zm-17.5 8.58a7.54 7.54 0 0 1 0-15.05 7.54 7.54 0 0 1 0 15.05zm-.02-12.54a5 5 0 1 0 .02 10.02 5 5 0 0 0-.02-10.02z"/></defs><use fill="#ff8207" xlink:href="#a" transform="translate(-422 -2584)"/></svg>