<svg xmlns="http://www.w3.org/2000/svg" xmlns:xlink="http://www.w3.org/1999/xlink" width="44" height="44" viewBox="0 0 44 44"><defs><path id="a" d="M1161.97 2595.56c-.01 2.78.03 9.1-2.88 12.05l-.53.54a9.51 9.51 0 0 1-6.81 2.9c-1.6 0-3.5-.48-4.87-1.23l-14.63 14.77a4.92 4.92 0 0 1-7.03 0l-1.76-1.8a5.11 5.11 0 0 1 0-7.14l14.4-14.73c-1.5-3.64-1-8.44 1.87-11.36l.54-.54c2.68-2.72 8.68-3.02 12.16-3.02h.34a1.19 1.19 0 0 1 .88 1.96l-5.62 6.51 5.68 5.84 6.3-5.66c.35-.31.85-.38 1.27-.2.42.2.69.64.69 1.1zm-2.44 2.7l-5.1 4.6c-.47.42-1.18.4-1.62-.06l-7.24-7.43a1.22 1.22 0 0 1-.05-1.64l4.58-5.3c-2.33.14-6.54.63-8.16 2.28l-.54.54c-1.89 1.94-2.24 5.3-1.64 7.75.21.86.57 1.7 1.1 2.46l-15.64 15.98a2.56 2.56 0 0 0 0 3.57l1.75 1.79a2.45 2.45 0 0 0 3.52 0l16-16.17c.66.6 1.38 1.06 2.16 1.38.87.37 2.15.54 3.1.54 1.91 0 3.74-.68 5.13-2.1l.47-.53c1.55-1.58 2.03-5.18 2.18-7.65z"/></defs><use fill="#ff8207" xlink:href="#a" transform="translate(-1120 -2584)"/></svg>